#!OML:ASF H:\ManfredETheater\Project 1\Capture day 1\Session 1\subject.ASF
:FULLY-SPECIFIED
:DEGREES
166
root -4.44666 16.6855 -22.036 -533.428 -46.037 184.164
lowerback 18.3395 2.84284 -1.1267
upperback 0.569466 3.24928 -1.31368
thorax -9.66369 1.50371 -1.63324
lowerneck -8.8655 -10.7918 -12.5704
upperneck -5.08453 -13.6997 17.7296
head 2.12591 -6.73171 6.58701
rclavicle 1.80894e-014 -1.27222e-014
rhumerus -41.3174 21.2968 -104.166
rradius 73.3306
rwrist 10.1594
rhand -20.0497 9.04904
rfingers 7.12502
rthumb 6.2918 -20.8375
lclavicle 1.80894e-014 -1.27222e-014
lhumerus -52.1431 -1.85063 90.3023
lradius 103.322
lwrist 3.43958
lhand -29.1776 -16.1381
lfingers 7.12502
lthumb -2.52321 13.8267
rfemur -5.14441 -6.74931 30.0634
rtibia 74.5085
rfoot 8.80219 -5.79568
rtoes -16.6472
lfemur -55.0556 -8.74768 -8.44721
ltibia 53.1085
lfoot -18.2188 -17.0163
ltoes -34.2597
167
root -4.66168 16.5958 -22.4118 -533.347 -45.2426 182.338
lowerback 19.2432 2.75777 -2.44446
upperback 0.708302 2.77649 -1.50769
thorax -10.0782 1.31718 -1.01137
lowerneck -9.06912 -10.5104 -12.2678
upperneck -4.98425 -13.3396 17.4868
head 2.09316 -6.55009 6.49332
rclavicle -3.45885e-014 1.59028e-014
rhumerus -41.3395 20.3316 -103.904
rradius 72.9804
rwrist 10.2411
rhand -20.5219 8.79412
rfingers 7.12502
rthumb 5.83597 -21.1055
lclavicle -3.45885e-014 1.59028e-014
lhumerus -50.7224 -2.60491 90.3352
lradius 103.254
lwrist 3.42408
lhand -28.984 -16.3244
lfingers 7.12502
lthumb -2.33625 13.6426
rfemur -6.74421 -7.77893 28.0379
rtibia 78.5394
rfoot 6.71894 -5.72833
rtoes -16.1561
lfemur -53.4082 -9.16845 -9.70297
ltibia 55.6197
lfoot -18.2972 -17.0561
ltoes -29.6713
168
root -4.87443 16.5112 -22.7821 -533.076 -44.4762 180.514
lowerback 19.9538 2.65367 -3.69066
upperback 0.808187 2.27199 -1.74819
thorax -10.4036 1.11671 -0.45328
lowerneck -9.36138 -10.2384 -11.9732
upperneck -4.82536 -12.9906 17.2405
head 2.0954 -6.36879 6.39208
rclavicle -5.70512e-014 -1.59028e-015
rhumerus -41.3961 19.3141 -103.613
rradius 72.6671
rwrist 9.99837
rhand -21.1268 8.4361
rfingers 7.12502
rthumb 5.25191 -21.4788
lclavicle -5.70512e-014 -1.59028e-015
lhumerus -49.2801 -3.41927 90.263
lradius 103.207
lwrist 3.32134
lhand -28.7752 -16.5033
lfingers 7.12502
lthumb -2.13458 13.4658
rfemur -8.72406 -8.83738 25.9927
rtibia 82.3687
rfoot 4.60774 -5.46945
rtoes -15.4325
lfemur -51.7605 -9.44288 -11.0756
ltibia 57.8644
lfoot -18.8029 -16.7144
ltoes -23.9442
169
root -5.08546 16.4364 -23.1489 -532.696 -43.6864 178.913
lowerback 20.361 2.52205 -4.73705
upperback 0.85474 1.7814 -1.98964
thorax -10.5956 0.919196 0.00395475
lowerneck -9.75009 -9.97416 -11.6835
upperneck -4.5971 -12.6505 16.9768
head 2.13523 -6.18609 6.27893
rclavicle 6.42074e-014 -9.54166e-015
rhumerus -41.5034 18.3007 -103.291
rradius 72.3939
rwrist 9.38625
rhand -21.7978 7.97773
rfingers 7.12502
rthumb 4.60402 -21.9522
lclavicle 6.42074e-014 -9.54166e-015
lhumerus -47.8324 -4.2618 90.0854
lradius 103.179
lwrist 3.1406
lhand -28.5474 -16.6641
lfingers 7.12502
lthumb -1.91456 13.307
rfemur -11.1445 -9.86882 24.1654
rtibia 85.8938
rfoot 2.54029 -5.09711
rtoes -14.7379
lfemur -50.1721 -9.51234 -12.3426
ltibia 59.8006
lfoot -19.7675 -16.0153
ltoes -19.4865
170
root -5.29508 16.3732 -23.5129 -532.289 -42.8442 177.666
lowerback 20.4534 2.34916 -5.50206
upperback 0.841586 1.32728 -2.20262
thorax -10.6608 0.731197 0.333721
lowerneck -10.2352 -9.70867 -11.3802
upperneck -4.28767 -12.3093 16.6746
head 2.21193 -5.99716 6.14606
rclavicle -6.54002e-014 4.85035e-014
rhumerus -41.6856 17.353 -102.958
rradius 72.1738
rwrist 8.40725
rhand -22.481 7.45746
rfingers 7.12502
rthumb 3.94429 -22.4858
lclavicle -6.54002e-014 4.85035e-014
lhumerus -46.4111 -5.09104 89.797
lradius 103.177
lwrist 2.8874
lhand -28.3183 -16.7771
lfingers 7.12502
lthumb -1.69329 13.1959
rfemur -13.9887 -10.8322 22.7335
rtibia 89.032
rfoot 0.588456 -4.71035
rtoes -14.27
lfemur -48.672 -9.37209 -13.3594
ltibia 61.4182
lfoot -21.0961 -15.0491
ltoes -16.7533
171
root -5.50352 16.321 -23.8753 -531.915 -41.9289 176.811
lowerback 20.2642 2.14098 -5.97465
upperback 0.770665 0.92958 -2.37374
thorax -10.623 0.560852 0.532846
lowerneck -10.7782 -9.43724 -11.0458
upperneck -3.91201 -11.9648 16.3309
head 2.31381 -5.80322 5.99276
rclavicle -1.35174e-014 -6.12257e-014
rhumerus -41.9667 16.4893 -102.612
rradius 72.0355
rwrist 7.19503
rhand -23.0585 6.95722
rfingers 7.12502
rthumb 3.38662 -22.9956
lclavicle -1.35174e-014 -6.12257e-014
lhumerus -45.0356 -5.87595 89.4099
lradius 103.201
lwrist 2.60472
lhand -28.1052 -16.8632
lfingers 7.12502
lthumb -1.48754 13.1113
rfemur -17.1738 -11.6938 21.7873
rtibia 91.714
rfoot -1.22213 -4.406
rtoes -14.1557
lfemur -47.2347 -9.03678 -14.0709
ltibia 62.7458
lfoot -22.7662 -13.9515
ltoes -15.4038
172
root -5.70911 16.2778 -24.2375 -531.589 -40.9456 176.297
lowerback 19.8544 1.90987 -6.22514
upperback 0.653069 0.586557 -2.49371
thorax -10.5099 0.409868 0.647804
lowerneck -11.3493 -9.15167 -10.6691
upperneck -3.49355 -11.608 15.9433
head 2.42785 -5.60225 5.81956
rclavicle 9.14409e-015 -2.54444e-014
rhumerus -42.3637 15.7429 -102.264
rradius 72.0161
rwrist 5.89765
rhand -23.4729 6.54881
rfingers 7.12502
rthumb 2.9864 -23.41
lclavicle 9.14409e-015 -2.54444e-014
lhumerus -43.7191 -6.57867 88.94
lradius 103.267
lwrist 2.31258
lhand -27.8769 -16.9469
lfingers 7.12502
lthumb -1.26706 13.0291
rfemur -20.6209 -12.4176 21.3389
rtibia 93.9119
rfoot -2.87055 -4.26288
rtoes -14.3795
lfemur -45.8163 -8.55049 -14.4946
ltibia 63.8124
lfoot -24.6406 -12.849
ltoes -15.0677
173
root -5.91133 16.244 -24.6017 -531.337 -39.9047 176.009
lowerback 19.3532 1.67546 -6.35733
upperback 0.505212 0.284435 -2.56897
thorax -10.3782 0.275469 0.730796
lowerneck -11.9133 -8.84735 -10.2773
upperneck -3.05013 -11.2323 15.5448
head 2.54725 -5.39226 5.64346
rclavicle 1.34577e-013 -3.10104e-014
rhumerus -42.9077 15.1209 -101.923
rradius 72.1609
rwrist 4.76503
rhand -23.6659 6.30382
rfingers 7.12502
rthumb 2.80004 -23.6575
lclavicle 1.34577e-013 -3.10104e-014
lhumerus -42.5157 -7.19992 88.4023
lradius 103.43
lwrist 2.06557
lhand -27.6381 -17.0112
lfingers 7.12502
lthumb -1.03639 12.9661
rfemur -24.1443 -12.9905 21.2902
rtibia 95.5817
rfoot -4.36464 -4.31937
rtoes -14.9827
lfemur -44.3145 -7.97845 -14.7241
ltibia 64.6102
lfoot -26.5753 -11.8211
ltoes -15.2402
174
root -6.10988 16.2194 -24.9687 -531.119 -38.8531 175.803
lowerback 18.84 1.45099 -6.47802
upperback 0.344314 0.00514552 -2.60765
thorax -10.2535 0.152976 0.837414
lowerneck -12.4616 -8.53423 -9.89204
upperneck -2.59796 -10.8479 15.1462
head 2.6694 -5.1787 5.47082
rclavicle -4.23411e-014 5.80451e-014
rhumerus -43.6022 14.6387 -101.566
rradius 72.5155
rwrist 3.91325
rhand -23.6372 6.26542
rfingers 7.12502
rthumb 2.82771 -23.6956
lclavicle -4.23411e-014 5.80451e-014
lhumerus -41.4226 -7.74945 87.8557
lradius 103.718
lwrist 1.89521
lhand -27.3863 -17.0394
lfingers 7.12502
lthumb -0.793148 12.9389
rfemur -27.6383 -13.4396 21.4888
rtibia 96.7234
rfoot -5.71813 -4.55136
rtoes -15.8474
lfemur -42.669 -7.40375 -14.8828
ltibia 65.13
lfoot -28.5244 -10.8443
ltoes -15.9467
175
root -6.30587 16.2052 -25.3405 -530.913 -37.8421 175.55
lowerback 18.3767 1.23238 -6.66984
upperback 0.184528 -0.284019 -2.62331
thorax -10.1529 0.0296377 1.00821
lowerneck -12.9751 -8.21575 -9.53249
upperneck -2.16121 -10.4562 14.7612
head 2.78637 -4.96352 5.30973
rclavicle 6.04305e-014 1.15295e-013
rhumerus -44.4609 14.303 -101.193
rradius 73.1164
rwrist 3.45386
rhand -23.3743 6.44912
rfingers 7.12502
rthumb 3.08165 -23.5084
lclavicle 6.04305e-014 1.15295e-013
lhumerus -40.4388 -8.22326 87.3427
lradius 104.149
lwrist 1.85225
lhand -27.1392 -17.0256
lfingers 7.12502
lthumb -0.554577 12.9535
rfemur -30.9693 -13.8169 21.7729
rtibia 97.3218
rfoot -6.97595 -4.92287
rtoes -16.9331
lfemur -40.8107 -6.91981 -15.0865
ltibia 65.3417
lfoot -30.2893 -9.99317
ltoes -16.4975
176
root -6.50057 16.2027 -25.7179 -530.697 -36.903 175.193
lowerback 17.9937 1.01798 -6.95387
upperback 0.0247557 -0.594264 -2.62743
thorax -10.0929 -0.0988634 1.24555
lowerneck -13.4575 -7.90202 -9.20161
upperneck -1.7393 -10.0686 14.3804
head 2.89946 -4.75219 5.15634
rclavicle -3.37934e-015 7.39479e-014
rhumerus -45.4934 14.0957 -100.803
rradius 73.9788
rwrist 3.38975
rhand -22.9391 6.83535
rfingers 7.12502
rthumb 3.50191 -23.1156
lclavicle -3.37934e-015 7.39479e-014
lhumerus -39.5782 -8.65054 86.9005
lradius 104.744
lwrist 1.95316
lhand -26.89 -16.9506
lfingers 7.12502
lthumb -0.313857 13.0289
rfemur -34.0908 -14.1446 22.0336
rtibia 97.3921
rfoot -8.16834 -5.36536
rtoes -18.06
lfemur -38.7243 -6.58113 -15.3963
ltibia 65.2299
lfoot -31.8517 -9.16971
ltoes -17.1143
177
root -6.69516 16.2123 -26.1018 -530.48 -36.0397 174.737
lowerback 17.6801 0.804537 -7.32177
upperback -0.125545 -0.925638 -2.61562
thorax -10.0553 -0.23313 1.55017
lowerneck -13.9295 -7.59442 -8.89025
upperneck -1.33602 -9.68448 13.9773
head 3.00822 -4.54472 5.00045
rclavicle -1.61016e-014 -1.43125e-014
rhumerus -46.6677 14.0208 -100.385
rradius 75.0839
rwrist 3.61868
rhand -22.3635 7.39119
rfingers 7.12502
rthumb 4.05774 -22.5499
lclavicle -1.61016e-014 -1.43125e-014
lhumerus -38.8016 -9.02697 86.5515
lradius 105.481
lwrist 2.2158
lhand -26.65 -16.8131
lfingers 7.12502
lthumb -0.082023 13.1667
rfemur -36.9584 -14.421 22.2289
rtibia 96.9385
rfoot -9.3085 -5.8338
rtoes -19.2636
lfemur -36.4158 -6.40182 -15.8172
ltibia 64.793
lfoot -33.1772 -8.29042
ltoes -17.9678
178
root -6.89077 16.235 -26.4928 -530.279 -35.2588 174.243
lowerback 17.4149 0.580532 -7.69929
upperback -0.274255 -1.27486 -2.58751
thorax -10.0364 -0.374315 1.88005
lowerneck -14.4039 -7.29707 -8.58472
upperneck -0.937974 -9.31049 13.5409
head 3.11804 -4.34413 4.83514
rclavicle -5.48646e-014 -1.74931e-014
rhumerus -47.9724 14.0467 -99.9593
rradius 76.3992
rwrist 3.99483
rhand -21.7166 8.04286
rfingers 7.12502
rthumb 4.68241 -21.8854
lclavicle -5.48646e-014 -1.74931e-014
lhumerus -38.0963 -9.36293 86.298
lradius 106.33
lwrist 2.63404
lhand -26.4376 -16.615
lfingers 7.12502
lthumb 0.12306 13.3647
rfemur -39.556 -14.6354 22.3774
rtibia 95.9691
rfoot -10.403 -6.29182
rtoes -20.5283
lfemur -33.9245 -6.38443 -16.2992
ltibia 64.0483
lfoot -34.2058 -7.36346
ltoes -19.1027
